<svg width="117" height="24" viewBox="0 0 117 24" fill="none" xmlns="http://www.w3.org/2000/svg">
<path fill-rule="evenodd" clip-rule="evenodd" d="M81.923 15.5637C80.229 15.1441 80.229 15.1266 80.229 14.2351C80.229 13.6347 80.2909 13.348 81.6862 13.348C82.6443 13.348 84.0542 13.5053 84.9613 13.6574C85.0852 13.6749 85.2127 13.6487 85.3147 13.57C85.4167 13.5001 85.4823 13.3865 85.4969 13.2641L85.7555 11.267C85.7737 11.0397 85.628 10.83 85.3912 10.7775C84.3347 10.545 82.8775 10.393 81.6753 10.393C77.4675 10.393 76.6114 11.9137 76.6114 14.1984C76.6114 16.7095 77.0941 17.5547 80.3128 18.3063C82.433 18.7958 82.4331 19.1585 82.4331 19.7616C82.4331 20.5534 82.3602 20.8279 80.9758 20.8279C79.8574 20.8279 78.5641 20.6618 77.4275 20.3699C77.3 20.3402 77.1724 20.3594 77.0632 20.4223C76.9539 20.4905 76.8755 20.5971 76.8519 20.7195L76.5039 22.6257C76.462 22.8442 76.595 23.0584 76.8136 23.1265C78.0559 23.5111 79.8374 23.7733 81.1452 23.7733C85.2145 23.7733 86.0452 22.1302 86.0452 19.6829C86.0452 16.9734 85.5461 16.4665 81.9175 15.5453L81.923 15.5628V15.5637ZM71.3708 15.5637C69.6768 15.1441 69.6768 15.1266 69.6768 14.2351C69.6768 13.6347 69.7387 13.348 71.134 13.348C72.0904 13.348 73.502 13.5053 74.4092 13.6574C74.533 13.6749 74.6605 13.6487 74.7626 13.57C74.8646 13.5001 74.9301 13.3865 74.9447 13.2641L75.2034 11.267C75.2325 11.0397 75.0795 10.83 74.8482 10.7775C73.8099 10.545 72.3527 10.393 71.1504 10.393C66.9536 10.393 66.0866 11.9137 66.0866 14.1984C66.0866 16.7095 66.5784 17.5547 69.7952 18.3063C71.9155 18.7958 71.9155 19.1585 71.9155 19.7616C71.9155 20.5534 71.8426 20.8279 70.4583 20.8279C69.338 20.8279 68.0447 20.6618 66.9063 20.3699C66.7787 20.3402 66.6512 20.3594 66.5419 20.4223C66.4327 20.4905 66.3543 20.5971 66.3307 20.7195L65.9663 22.6161C65.9299 22.8346 66.0574 23.0496 66.2815 23.1178C67.5201 23.5024 69.3016 23.7646 70.6113 23.7646C74.6733 23.7646 75.5112 22.1214 75.5112 19.6742C75.5112 16.9647 75.0048 16.4578 71.3763 15.5366L71.3708 15.554V15.5637ZM34.0202 6.38121C33.9601 6.19592 33.7834 6.07006 33.5794 6.07006H29.2651C29.0647 6.07006 28.8826 6.19504 28.8225 6.37859L23.3788 22.9316C23.3369 23.0627 23.3606 23.2113 23.448 23.3249C23.5354 23.4386 23.6739 23.5059 23.8214 23.5059H26.7905C26.9964 23.5059 27.1767 23.3748 27.235 23.1912L30.9846 11.0074C30.9846 11.0074 31.0848 10.7015 31.4218 10.7015C31.7679 10.7015 31.859 11.0161 31.859 11.0161L33.5985 16.7934H31.267C31.0666 16.7934 30.8844 16.9271 30.8298 17.1168L30.1558 19.4067C30.1194 19.5378 30.1558 19.6864 30.2287 19.7913C30.3198 19.9023 30.4655 19.9661 30.6112 19.9661H34.5913L35.6386 23.1938C35.6969 23.3774 35.8754 23.5032 36.0758 23.5032H39.0449C39.1906 23.5032 39.3327 23.4333 39.4202 23.3197C39.5112 23.2043 39.5367 23.0575 39.493 22.9229L34.0439 6.35149L34.0257 6.37946L34.0202 6.38121ZM90.7611 10.6587H88.0288C87.7738 10.6587 87.568 10.8571 87.568 11.1018V23.0933C87.568 23.338 87.7756 23.5408 88.0306 23.5408H90.7629C91.018 23.5408 91.2247 23.3424 91.2247 23.0951V11.1062C91.2247 10.8614 91.0243 10.6665 90.7693 10.6665L90.7602 10.6595L90.7611 10.6587ZM52.017 5.74667H49.2847C49.0297 5.74667 48.8239 5.94508 48.8239 6.1898V23.0933C48.8239 23.338 49.0315 23.5408 49.2865 23.5408H52.0188C52.2738 23.5408 52.4797 23.3424 52.4797 23.0951V6.19417C52.4797 5.94945 52.2793 5.75454 52.0243 5.75454L52.017 5.74755V5.74667ZM113.439 10.4008C111.996 10.4008 110.024 10.8798 108.357 11.6314L108.157 10.9847C108.102 10.7924 107.92 10.6657 107.715 10.6657H105.693C105.438 10.6657 105.229 10.8641 105.229 11.1088V23.1003C105.229 23.345 105.429 23.5461 105.684 23.5461H108.416C108.671 23.5461 108.881 23.3485 108.881 23.1003V14.7971C109.865 14.3164 111.249 13.8182 112.071 13.8182C112.687 13.8182 112.915 14.0402 112.915 14.6311V23.0916C112.915 23.3398 113.124 23.5373 113.379 23.5373H116.111C116.366 23.5373 116.572 23.3398 116.572 23.0916V14.2876C116.572 11.7136 115.516 10.4069 113.437 10.4069H113.436L113.439 10.4008ZM10.1672 17.5302C10.0943 17.4603 9.99048 17.386 9.81197 17.386C9.58428 17.386 9.45131 17.5363 9.4003 17.6097C8.12523 19.4801 7.46947 21.2456 7.3784 23.0199C7.37567 23.151 7.42667 23.2821 7.51957 23.3783C7.61064 23.4831 7.74726 23.5356 7.88387 23.5356H10.9113C11.1754 23.5356 11.394 23.3433 11.4122 23.0986C11.4851 22.242 11.7583 21.3855 12.2683 20.494C12.4414 20.1793 12.3047 19.8909 12.2046 19.7659C11.7036 19.1366 11.0907 18.4724 10.1799 17.5582L10.1763 17.5407L10.1672 17.5302ZM60.8761 18.8063V20.3507C60.4298 20.5954 59.6101 20.9275 58.6173 20.9275C57.7703 20.9275 57.5062 20.6828 57.5062 19.8612C57.5062 19.0746 57.6701 18.8264 58.672 18.8264H60.8761V18.8071V18.8063ZM99.693 18.8063V20.3507C99.2376 20.5954 98.418 20.9275 97.4343 20.9275C96.5873 20.9275 96.3232 20.6828 96.3232 19.8612C96.3232 19.0746 96.4871 18.8264 97.489 18.8264H99.693V18.8071V18.8063ZM46.9686 20.9782C46.9504 20.8523 46.8775 20.7422 46.7682 20.6723C46.659 20.6024 46.5296 20.5814 46.4021 20.6111C45.9103 20.7265 45.4549 20.7894 45.0906 20.7894C44.4166 20.7894 44.107 20.5097 44.107 19.8804V13.5263H46.7573C47.0123 13.5263 47.22 13.3253 47.22 13.0806V11.0965C47.22 10.8518 47.0105 10.6508 46.7555 10.6508H44.1143V7.60134C44.1143 7.47024 44.0523 7.3505 43.9503 7.26484C43.8501 7.18006 43.7135 7.14248 43.586 7.15996L40.8537 7.52705C40.6242 7.55589 40.453 7.74293 40.453 7.96406V10.656H38.962C38.707 10.656 38.4994 10.8544 38.4994 11.0992V13.0919C38.4994 13.3367 38.718 13.5394 38.973 13.5394H40.4593V20.2956C40.4593 22.6179 41.729 23.7917 44.2354 23.7917C44.9458 23.7917 46.1589 23.6343 46.9495 23.3721C47.159 23.3022 47.2883 23.0986 47.2537 22.8827L46.9577 20.9861L46.9668 20.973L46.9686 20.9782ZM59.0445 10.4069C57.6601 10.4069 55.977 10.6167 54.7548 10.9401C54.518 11.0013 54.3723 11.2154 54.4087 11.4383L54.7238 13.3436C54.742 13.4599 54.8149 13.5648 54.9151 13.6347C55.0171 13.7046 55.1446 13.7221 55.2685 13.7046C56.4033 13.4948 57.5763 13.3725 58.5691 13.3725C60.5363 13.3725 60.8533 13.7745 60.8533 15.0506V16.1693H57.9388C55.1446 16.1693 53.9497 17.2706 53.9497 19.8752C53.9497 22.3574 55.2612 23.7733 57.5381 23.7733C58.8623 23.7733 60.1848 23.4237 61.2959 22.7769L61.4143 23.1842C61.469 23.3765 61.6511 23.5076 61.8606 23.5076H64.0792C64.3343 23.5076 64.5401 23.3066 64.5401 23.0619V15.0908C64.5401 11.6647 63.0555 10.3886 59.0573 10.3886L59.0409 10.3973L59.0445 10.4069ZM97.8551 10.4069C96.4707 10.4069 94.7949 10.6167 93.5745 10.9401C93.3468 11.0013 93.2011 11.2154 93.2421 11.4383L93.5608 13.3436C93.579 13.4599 93.6519 13.5648 93.7521 13.6347C93.8559 13.7046 93.9834 13.7221 94.1073 13.7046C95.2366 13.4948 96.4024 13.3725 97.4043 13.3725C99.3715 13.3725 99.6812 13.7745 99.6812 15.0506V16.1693H96.7667C93.9616 16.1693 92.7666 17.2706 92.7666 19.8752C92.7666 22.3574 94.0754 23.7733 96.3551 23.7733C97.6784 23.7733 98.9963 23.4237 100.107 22.7769L100.226 23.1842C100.28 23.3765 100.463 23.5076 100.672 23.5076H102.876C103.131 23.5076 103.341 23.3066 103.341 23.0619V15.0908C103.341 11.6647 101.856 10.3886 97.8578 10.3886L97.8624 10.3973L97.8551 10.4069ZM22.4498 5.82708C22.3587 5.76153 22.254 5.72832 22.1465 5.72832C22.0737 5.72832 22.019 5.73881 21.9644 5.75978C20.8714 6.15659 19.7785 6.459 18.7767 6.681C18.5763 6.73344 18.3978 6.87328 18.3395 7.04809C17.6109 8.97093 15.7347 10.8064 13.7857 12.7117C13.7128 12.7817 13.6035 12.8865 13.4213 12.8865C13.2392 12.8865 13.1299 12.7991 13.057 12.724C11.0898 10.8099 9.23181 8.99191 8.5032 7.06906C8.43034 6.89426 8.2664 6.75442 8.06603 6.70198C7.06418 6.47473 5.95304 6.16882 4.87834 5.77552C4.82369 5.75804 4.75447 5.7493 4.69618 5.7493C4.58689 5.7493 4.48124 5.78426 4.39198 5.84806C4.25355 5.9442 4.18251 6.11026 4.1989 6.26759C4.36284 7.86355 5.0277 9.4228 6.2117 11.0572C7.33195 12.5955 8.78007 14.0201 10.1918 15.3958C12.7783 17.9305 15.2283 20.3253 15.4451 23.1047C15.4633 23.3529 15.6819 23.5469 15.9405 23.5469H18.9825C19.1191 23.5469 19.2521 23.4945 19.3468 23.3984C19.4415 23.3022 19.4925 23.1746 19.4834 23.0435C19.3869 21.188 18.6583 19.3289 17.2557 17.3598C16.9642 16.949 16.6546 16.5469 16.324 16.1536C16.191 15.9963 16.2475 15.7953 16.3495 15.6974L16.6591 15.3967C18.0681 14.0245 19.5189 12.5999 20.6392 11.0616C21.8232 9.43154 22.4789 7.88015 22.6474 6.28507C22.6657 6.12338 22.5892 5.95294 22.4544 5.85418L22.4635 5.84107L22.4498 5.82708ZM13.4332 7.26047C14.3868 7.26047 14.9405 7.20191 15.1336 7.20191C15.3522 7.20191 15.589 7.37672 15.589 7.63892C15.589 7.70885 15.5708 7.76129 15.5525 7.81373C15.425 8.13537 14.8421 9.30306 13.7674 10.3047C13.6399 10.4166 13.5124 10.4375 13.4213 10.4375C13.3303 10.4375 13.1846 10.4166 13.0625 10.3047C11.9878 9.30306 11.4122 8.13711 11.2865 7.81023C11.2683 7.75779 11.2501 7.70535 11.2501 7.62669C11.2501 7.37322 11.4741 7.18094 11.7091 7.18094C11.904 7.18094 12.4559 7.23338 13.4104 7.23338H13.4141L13.4323 7.25086L13.4332 7.26047ZM90.7593 5.75104H88.0343C87.7793 5.75104 87.5716 5.94333 87.5716 6.18805V8.49546C87.5716 8.74019 87.7793 8.93946 88.0343 8.93946H90.7666C91.0216 8.93946 91.2283 8.74718 91.2283 8.50245V6.17669C91.2283 5.93197 91.0216 5.73531 90.7666 5.73531L90.7593 5.75629V5.75104ZM26.7395 0.246473C26.6184 0.0891499 26.4299 0.00174803 26.2295 0.00174803C26.1266 0.00174803 26.0246 0.0227245 25.938 0.0716695C22.2039 2.02947 17.8805 3.06606 13.4286 3.06781C8.97862 3.06781 4.65429 2.02947 0.923777 0.0699215C0.8327 0.0174804 0.732515 3.22993e-09 0.632331 3.22993e-09C0.431962 3.22993e-09 0.2407 0.0874019 0.1223 0.244725C-0.0543889 0.45449 -0.0598536 0.839058 0.2407 1.0663C2.10778 2.39481 4.16794 3.44363 6.36107 4.16033C8.63799 4.89451 11.0133 5.27907 13.4286 5.27907C15.8458 5.27907 18.2229 4.89451 20.4962 4.16033C22.6912 3.44363 24.7513 2.39481 26.622 1.0663C26.9226 0.839058 26.9135 0.45449 26.7404 0.227245V0.246473H26.7395Z" fill="#5982E7"/>
</svg>
