<svg width="215" height="36" viewBox="0 0 215 36" fill="none" xmlns="http://www.w3.org/2000/svg">
<path d="M30.746 19V6.148H32.366V17.56H37.982V19H30.746ZM51.0479 12.556C51.0479 13.888 50.8199 15.052 50.3639 16.048C49.9199 17.032 49.2599 17.8 48.3839 18.352C47.5079 18.904 46.4219 19.18 45.1259 19.18C43.7939 19.18 42.6839 18.904 41.7959 18.352C40.9199 17.8 40.2659 17.026 39.8339 16.03C39.4019 15.034 39.1859 13.87 39.1859 12.538C39.1859 11.218 39.4019 10.066 39.8339 9.082C40.2659 8.098 40.9199 7.33 41.7959 6.778C42.6839 6.226 43.7999 5.95 45.1439 5.95C46.4279 5.95 47.5079 6.226 48.3839 6.778C49.2599 7.318 49.9199 8.086 50.3639 9.082C50.8199 10.066 51.0479 11.224 51.0479 12.556ZM40.8959 12.556C40.8959 14.176 41.2379 15.454 41.9219 16.39C42.6059 17.314 43.6739 17.776 45.1259 17.776C46.5899 17.776 47.6579 17.314 48.3299 16.39C49.0019 15.454 49.3379 14.176 49.3379 12.556C49.3379 10.936 49.0019 9.67 48.3299 8.758C47.6579 7.834 46.5959 7.372 45.1439 7.372C43.6919 7.372 42.6179 7.834 41.9219 8.758C41.2379 9.67 40.8959 10.936 40.8959 12.556ZM59.4764 12.214H63.9224V18.514C63.2264 18.742 62.5244 18.91 61.8164 19.018C61.1084 19.126 60.3044 19.18 59.4044 19.18C58.0724 19.18 56.9504 18.916 56.0384 18.388C55.1264 17.848 54.4304 17.086 53.9504 16.102C53.4824 15.106 53.2484 13.93 53.2484 12.574C53.2484 11.23 53.5124 10.066 54.0404 9.082C54.5684 8.098 55.3244 7.336 56.3084 6.796C57.3044 6.244 58.5044 5.968 59.9084 5.968C60.6284 5.968 61.3064 6.034 61.9424 6.166C62.5904 6.298 63.1904 6.484 63.7424 6.724L63.1304 8.128C62.6744 7.924 62.1584 7.75 61.5824 7.606C61.0184 7.462 60.4304 7.39 59.8184 7.39C58.2824 7.39 57.0824 7.852 56.2184 8.776C55.3664 9.7 54.9404 10.966 54.9404 12.574C54.9404 13.594 55.1024 14.5 55.4264 15.292C55.7624 16.072 56.2844 16.684 56.9924 17.128C57.7004 17.56 58.6304 17.776 59.7824 17.776C60.3464 17.776 60.8264 17.746 61.2224 17.686C61.6184 17.626 61.9784 17.554 62.3024 17.47V13.654H59.4764V12.214ZM70.6101 19H65.9661V18.064L67.4781 17.722V7.444L65.9661 7.084V6.148H70.6101V7.084L69.0981 7.444V17.722L70.6101 18.064V19ZM80.3817 15.562C80.3817 16.702 79.9677 17.59 79.1397 18.226C78.3117 18.862 77.1957 19.18 75.7917 19.18C75.0717 19.18 74.4057 19.126 73.7937 19.018C73.1817 18.91 72.6717 18.76 72.2637 18.568V17.02C72.6957 17.212 73.2297 17.386 73.8657 17.542C74.5137 17.698 75.1797 17.776 75.8637 17.776C76.8237 17.776 77.5437 17.59 78.0237 17.218C78.5157 16.846 78.7617 16.342 78.7617 15.706C78.7617 15.286 78.6717 14.932 78.4917 14.644C78.3117 14.356 77.9997 14.092 77.5557 13.852C77.1237 13.6 76.5177 13.336 75.7377 13.06C74.6457 12.664 73.8177 12.178 73.2537 11.602C72.7017 11.026 72.4257 10.24 72.4257 9.244C72.4257 8.56 72.5997 7.978 72.9477 7.498C73.2957 7.006 73.7757 6.628 74.3877 6.364C75.0117 6.1 75.7257 5.968 76.5297 5.968C77.2377 5.968 77.8857 6.034 78.4737 6.166C79.0617 6.298 79.5957 6.472 80.0757 6.688L79.5717 8.074C79.1277 7.882 78.6417 7.72 78.1137 7.588C77.5977 7.456 77.0577 7.39 76.4937 7.39C75.6897 7.39 75.0837 7.564 74.6757 7.912C74.2677 8.248 74.0637 8.698 74.0637 9.262C74.0637 9.694 74.1537 10.054 74.3337 10.342C74.5137 10.63 74.8077 10.888 75.2157 11.116C75.6237 11.344 76.1757 11.59 76.8717 11.854C77.6277 12.13 78.2637 12.43 78.7797 12.754C79.3077 13.066 79.7037 13.444 79.9677 13.888C80.2437 14.332 80.3817 14.89 80.3817 15.562ZM87.0386 19H85.4186V7.57H81.4046V6.148H91.0346V7.57H87.0386V19ZM96.5906 19H91.9466V18.064L93.4586 17.722V7.444L91.9466 7.084V6.148H96.5906V7.084L95.0786 7.444V17.722L96.5906 18.064V19ZM104.58 7.39C103.2 7.39 102.114 7.852 101.322 8.776C100.53 9.7 100.134 10.966 100.134 12.574C100.134 14.17 100.5 15.436 101.232 16.372C101.976 17.296 103.086 17.758 104.562 17.758C105.126 17.758 105.66 17.71 106.164 17.614C106.668 17.518 107.16 17.398 107.64 17.254V18.658C107.16 18.838 106.662 18.97 106.146 19.054C105.642 19.138 105.036 19.18 104.328 19.18C103.02 19.18 101.928 18.91 101.052 18.37C100.176 17.83 99.5162 17.062 99.0722 16.066C98.6402 15.07 98.4242 13.9 98.4242 12.556C98.4242 11.26 98.6582 10.12 99.1262 9.136C99.6062 8.14 100.308 7.366 101.232 6.814C102.156 6.25 103.278 5.968 104.598 5.968C105.954 5.968 107.136 6.22 108.144 6.724L107.496 8.092C107.1 7.912 106.656 7.75 106.164 7.606C105.684 7.462 105.156 7.39 104.58 7.39ZM117.735 15.562C117.735 16.702 117.321 17.59 116.493 18.226C115.665 18.862 114.549 19.18 113.145 19.18C112.425 19.18 111.759 19.126 111.147 19.018C110.535 18.91 110.025 18.76 109.617 18.568V17.02C110.049 17.212 110.583 17.386 111.219 17.542C111.867 17.698 112.533 17.776 113.217 17.776C114.177 17.776 114.897 17.59 115.377 17.218C115.869 16.846 116.115 16.342 116.115 15.706C116.115 15.286 116.025 14.932 115.845 14.644C115.665 14.356 115.353 14.092 114.909 13.852C114.477 13.6 113.871 13.336 113.091 13.06C111.999 12.664 111.171 12.178 110.607 11.602C110.055 11.026 109.779 10.24 109.779 9.244C109.779 8.56 109.953 7.978 110.301 7.498C110.649 7.006 111.129 6.628 111.741 6.364C112.365 6.1 113.079 5.968 113.883 5.968C114.591 5.968 115.239 6.034 115.827 6.166C116.415 6.298 116.949 6.472 117.429 6.688L116.925 8.074C116.481 7.882 115.995 7.72 115.467 7.588C114.951 7.456 114.411 7.39 113.847 7.39C113.043 7.39 112.437 7.564 112.029 7.912C111.621 8.248 111.417 8.698 111.417 9.262C111.417 9.694 111.507 10.054 111.687 10.342C111.867 10.63 112.161 10.888 112.569 11.116C112.977 11.344 113.529 11.59 114.225 11.854C114.981 12.13 115.617 12.43 116.133 12.754C116.661 13.066 117.057 13.444 117.321 13.888C117.597 14.332 117.735 14.89 117.735 15.562ZM128.388 19L126.84 15.022H121.746L120.216 19H118.578L123.6 6.094H125.058L130.062 19H128.388ZM124.914 9.694C124.878 9.598 124.818 9.424 124.734 9.172C124.65 8.92 124.566 8.662 124.482 8.398C124.41 8.122 124.35 7.912 124.302 7.768C124.218 8.14 124.122 8.506 124.014 8.866C123.906 9.214 123.816 9.49 123.744 9.694L122.286 13.582H126.354L124.914 9.694ZM131.82 19V6.148H133.44V17.56H139.056V19H131.82ZM149.324 19L147.776 15.022H142.682L141.152 19H139.514L144.536 6.094H145.994L150.998 19H149.324ZM145.85 9.694C145.814 9.598 145.754 9.424 145.67 9.172C145.586 8.92 145.502 8.662 145.418 8.398C145.346 8.122 145.286 7.912 145.238 7.768C145.154 8.14 145.058 8.506 144.95 8.866C144.842 9.214 144.752 9.49 144.68 9.694L143.222 13.582H147.29L145.85 9.694ZM156.302 6.148C157.898 6.148 159.074 6.454 159.83 7.066C160.598 7.666 160.982 8.578 160.982 9.802C160.982 10.486 160.856 11.056 160.604 11.512C160.352 11.968 160.028 12.334 159.632 12.61C159.248 12.874 158.84 13.084 158.408 13.24L161.936 19H160.046L156.932 13.69H154.376V19H152.756V6.148H156.302ZM156.212 7.552H154.376V12.322H156.302C157.346 12.322 158.108 12.118 158.588 11.71C159.068 11.29 159.308 10.678 159.308 9.874C159.308 9.034 159.056 8.44 158.552 8.092C158.048 7.732 157.268 7.552 156.212 7.552ZM167.571 19H162.927V18.064L164.439 17.722V7.444L162.927 7.084V6.148H167.571V7.084L166.059 7.444V17.722L167.571 18.064V19ZM177.235 19H170.053V6.148H177.235V7.57H171.673V11.584H176.911V12.988H171.673V17.578H177.235V19ZM187.345 15.562C187.345 16.702 186.931 17.59 186.103 18.226C185.275 18.862 184.159 19.18 182.755 19.18C182.035 19.18 181.369 19.126 180.757 19.018C180.145 18.91 179.635 18.76 179.227 18.568V17.02C179.659 17.212 180.193 17.386 180.829 17.542C181.477 17.698 182.143 17.776 182.827 17.776C183.787 17.776 184.507 17.59 184.987 17.218C185.479 16.846 185.725 16.342 185.725 15.706C185.725 15.286 185.635 14.932 185.455 14.644C185.275 14.356 184.963 14.092 184.519 13.852C184.087 13.6 183.481 13.336 182.701 13.06C181.609 12.664 180.781 12.178 180.217 11.602C179.665 11.026 179.389 10.24 179.389 9.244C179.389 8.56 179.563 7.978 179.911 7.498C180.259 7.006 180.739 6.628 181.351 6.364C181.975 6.1 182.689 5.968 183.493 5.968C184.201 5.968 184.849 6.034 185.437 6.166C186.025 6.298 186.559 6.472 187.039 6.688L186.535 8.074C186.091 7.882 185.605 7.72 185.077 7.588C184.561 7.456 184.021 7.39 183.457 7.39C182.653 7.39 182.047 7.564 181.639 7.912C181.231 8.248 181.027 8.698 181.027 9.262C181.027 9.694 181.117 10.054 181.297 10.342C181.477 10.63 181.771 10.888 182.179 11.116C182.587 11.344 183.139 11.59 183.835 11.854C184.591 12.13 185.227 12.43 185.743 12.754C186.271 13.066 186.667 13.444 186.931 13.888C187.207 14.332 187.345 14.89 187.345 15.562ZM189.484 18.028C189.484 17.584 189.592 17.272 189.808 17.092C190.024 16.912 190.282 16.822 190.582 16.822C190.894 16.822 191.158 16.912 191.374 17.092C191.602 17.272 191.716 17.584 191.716 18.028C191.716 18.46 191.602 18.772 191.374 18.964C191.158 19.156 190.894 19.252 190.582 19.252C190.282 19.252 190.024 19.156 189.808 18.964C189.592 18.772 189.484 18.46 189.484 18.028ZM198.422 6.148C200.03 6.148 201.242 6.388 202.058 6.868C202.886 7.336 203.3 8.158 203.3 9.334C203.3 10.09 203.09 10.72 202.67 11.224C202.25 11.716 201.644 12.034 200.852 12.178V12.268C201.392 12.352 201.878 12.508 202.31 12.736C202.754 12.964 203.102 13.288 203.354 13.708C203.606 14.128 203.732 14.674 203.732 15.346C203.732 16.51 203.33 17.41 202.526 18.046C201.734 18.682 200.648 19 199.268 19H194.75V6.148H198.422ZM198.746 11.62C199.85 11.62 200.606 11.446 201.014 11.098C201.422 10.738 201.626 10.21 201.626 9.514C201.626 8.806 201.374 8.302 200.87 8.002C200.378 7.69 199.586 7.534 198.494 7.534H196.37V11.62H198.746ZM196.37 12.97V17.632H198.962C200.102 17.632 200.894 17.41 201.338 16.966C201.782 16.522 202.004 15.94 202.004 15.22C202.004 14.548 201.77 14.008 201.302 13.6C200.846 13.18 200.024 12.97 198.836 12.97H196.37ZM209.805 12.466L213.153 6.148H214.899L210.615 14.014V19H208.995V14.086L204.711 6.148H206.475L209.805 12.466Z" fill="white"/>
<path d="M33.03 26.55C32.2633 26.55 31.66 26.8067 31.22 27.32C30.78 27.8333 30.56 28.5367 30.56 29.43C30.56 30.3167 30.7633 31.02 31.17 31.54C31.5833 32.0533 32.2 32.31 33.02 32.31C33.3333 32.31 33.63 32.2833 33.91 32.23C34.19 32.1767 34.4633 32.11 34.73 32.03V32.81C34.4633 32.91 34.1867 32.9833 33.9 33.03C33.62 33.0767 33.2833 33.1 32.89 33.1C32.1633 33.1 31.5567 32.95 31.07 32.65C30.5833 32.35 30.2167 31.9233 29.97 31.37C29.73 30.8167 29.61 30.1667 29.61 29.42C29.61 28.7 29.74 28.0667 30 27.52C30.2667 26.9667 30.6567 26.5367 31.17 26.23C31.6833 25.9167 32.3067 25.76 33.04 25.76C33.7933 25.76 34.45 25.9 35.01 26.18L34.65 26.94C34.43 26.84 34.1833 26.75 33.91 26.67C33.6433 26.59 33.35 26.55 33.03 26.55ZM38.2384 27.54C38.6984 27.54 39.0917 27.64 39.4184 27.84C39.7517 28.04 40.005 28.3233 40.1784 28.69C40.3584 29.05 40.4484 29.4733 40.4484 29.96V30.49H36.7784C36.7917 31.0967 36.945 31.56 37.2384 31.88C37.5384 32.1933 37.955 32.35 38.4884 32.35C38.8284 32.35 39.1284 32.32 39.3884 32.26C39.655 32.1933 39.9284 32.1 40.2084 31.98V32.75C39.935 32.87 39.665 32.9567 39.3984 33.01C39.1317 33.07 38.815 33.1 38.4484 33.1C37.9417 33.1 37.4917 32.9967 37.0984 32.79C36.7117 32.5833 36.4084 32.2767 36.1884 31.87C35.975 31.4567 35.8684 30.9533 35.8684 30.36C35.8684 29.7733 35.965 29.27 36.1584 28.85C36.3584 28.43 36.635 28.1067 36.9884 27.88C37.3484 27.6533 37.765 27.54 38.2384 27.54ZM38.2284 28.26C37.8084 28.26 37.475 28.3967 37.2284 28.67C36.9884 28.9367 36.845 29.31 36.7984 29.79H39.5284C39.5217 29.3367 39.415 28.97 39.2084 28.69C39.0017 28.4033 38.675 28.26 38.2284 28.26ZM44.3629 27.54C45.0229 27.54 45.5529 27.77 45.9529 28.23C46.3596 28.69 46.5629 29.3833 46.5629 30.31C46.5629 31.2233 46.3596 31.9167 45.9529 32.39C45.5529 32.8633 45.0196 33.1 44.3529 33.1C43.9396 33.1 43.5962 33.0233 43.3229 32.87C43.0562 32.71 42.8462 32.5267 42.6929 32.32H42.6329C42.6462 32.4333 42.6596 32.5767 42.6729 32.75C42.6862 32.9233 42.6929 33.0733 42.6929 33.2V35.4H41.8129V27.64H42.5329L42.6529 28.37H42.6929C42.8529 28.1367 43.0629 27.94 43.3229 27.78C43.5829 27.62 43.9296 27.54 44.3629 27.54ZM44.2029 28.28C43.6562 28.28 43.2696 28.4333 43.0429 28.74C42.8229 29.0467 42.7062 29.5133 42.6929 30.14V30.31C42.6929 30.97 42.7996 31.48 43.0129 31.84C43.2329 32.1933 43.6362 32.37 44.2229 32.37C44.5496 32.37 44.8162 32.28 45.0229 32.1C45.2362 31.92 45.3929 31.6767 45.4929 31.37C45.5996 31.0567 45.6529 30.7 45.6529 30.3C45.6529 29.6867 45.5329 29.1967 45.2929 28.83C45.0596 28.4633 44.6962 28.28 44.2029 28.28ZM52.2752 28.99C52.2752 29.3233 52.1752 29.5833 51.9752 29.77C51.7752 29.9567 51.5186 30.0833 51.2052 30.15V30.19C51.5386 30.2367 51.8286 30.3567 52.0752 30.55C52.3219 30.7367 52.4452 31.03 52.4452 31.43C52.4452 31.8833 52.2752 32.26 51.9352 32.56C51.6019 32.8533 51.0486 33 50.2752 33H47.9652V27.64H50.2652C50.6452 27.64 50.9852 27.6833 51.2852 27.77C51.5919 27.85 51.8319 27.99 52.0052 28.19C52.1852 28.3833 52.2752 28.65 52.2752 28.99ZM51.3852 29.1C51.3852 28.8467 51.2919 28.6633 51.1052 28.55C50.9252 28.43 50.6286 28.37 50.2152 28.37H48.8452V29.84H50.0552C50.9419 29.84 51.3852 29.5933 51.3852 29.1ZM51.5352 31.43C51.5352 31.1233 51.4186 30.9033 51.1852 30.77C50.9519 30.6367 50.6086 30.57 50.1552 30.57H48.8452V32.29H50.1752C50.6152 32.29 50.9519 32.2267 51.1852 32.1C51.4186 31.9667 51.5352 31.7433 51.5352 31.43ZM54.557 30.91C54.557 30.99 54.5536 31.11 54.547 31.27C54.5403 31.43 54.5303 31.59 54.517 31.75C54.5103 31.91 54.5036 32.0367 54.497 32.13L57.367 27.64H58.447V33H57.627V29.84C57.627 29.7333 57.627 29.5933 57.627 29.42C57.6336 29.2467 57.6403 29.0767 57.647 28.91C57.6536 28.7367 57.6603 28.6067 57.667 28.52L54.817 33H53.727V27.64H54.557V30.91ZM62.3027 33.1C61.8294 33.1 61.4061 33.0033 61.0327 32.81C60.6661 32.6167 60.3761 32.3167 60.1627 31.91C59.9561 31.5033 59.8527 30.9833 59.8527 30.35C59.8527 29.69 59.9627 29.1533 60.1827 28.74C60.4027 28.3267 60.6994 28.0233 61.0727 27.83C61.4527 27.6367 61.8827 27.54 62.3627 27.54C62.6361 27.54 62.8994 27.57 63.1527 27.63C63.4061 27.6833 63.6127 27.75 63.7727 27.83L63.5027 28.56C63.3427 28.5 63.1561 28.4433 62.9427 28.39C62.7294 28.3367 62.5294 28.31 62.3427 28.31C61.2894 28.31 60.7627 28.9867 60.7627 30.34C60.7627 30.9867 60.8894 31.4833 61.1427 31.83C61.4027 32.17 61.7861 32.34 62.2927 32.34C62.5861 32.34 62.8427 32.31 63.0627 32.25C63.2894 32.19 63.4961 32.1167 63.6827 32.03V32.81C63.5027 32.9033 63.3027 32.9733 63.0827 33.02C62.8694 33.0733 62.6094 33.1 62.3027 33.1ZM68.9651 27.54C69.5784 27.54 70.0651 27.6633 70.4251 27.91C70.7917 28.15 70.9751 28.4967 70.9751 28.95C70.9751 29.2767 70.8851 29.5367 70.7051 29.73C70.5251 29.9167 70.2784 30.0533 69.9651 30.14V30.18C70.1784 30.24 70.3751 30.3233 70.5551 30.43C70.7351 30.5367 70.8784 30.6767 70.9851 30.85C71.0984 31.0233 71.1551 31.2467 71.1551 31.52C71.1551 31.9667 70.9684 32.3433 70.5951 32.65C70.2284 32.95 69.6517 33.1 68.8651 33.1C68.4784 33.1 68.1284 33.0667 67.8151 33C67.5017 32.94 67.2417 32.8567 67.0351 32.75V31.96C67.2617 32.0667 67.5284 32.1633 67.8351 32.25C68.1484 32.3367 68.4884 32.38 68.8551 32.38C69.2551 32.38 69.5917 32.3133 69.8651 32.18C70.1451 32.04 70.2851 31.8033 70.2851 31.47C70.2851 30.87 69.7751 30.57 68.7551 30.57H68.0351V29.85H68.6151C69.0751 29.85 69.4417 29.79 69.7151 29.67C69.9951 29.5433 70.1351 29.33 70.1351 29.03C70.1351 28.7767 70.0284 28.5867 69.8151 28.46C69.6084 28.3333 69.3084 28.27 68.9151 28.27C68.6217 28.27 68.3617 28.3 68.1351 28.36C67.9151 28.4133 67.6717 28.4967 67.4051 28.61L67.0951 27.91C67.6551 27.6633 68.2784 27.54 68.9651 27.54ZM74.4874 27.55C75.1408 27.55 75.6241 27.6933 75.9374 27.98C76.2508 28.2667 76.4074 28.7233 76.4074 29.35V33H75.7674L75.5974 32.24H75.5574C75.3241 32.5333 75.0774 32.75 74.8174 32.89C74.5641 33.03 74.2108 33.1 73.7574 33.1C73.2708 33.1 72.8674 32.9733 72.5474 32.72C72.2274 32.46 72.0674 32.0567 72.0674 31.51C72.0674 30.9767 72.2774 30.5667 72.6974 30.28C73.1174 29.9867 73.7641 29.8267 74.6374 29.8L75.5474 29.77V29.45C75.5474 29.0033 75.4508 28.6933 75.2574 28.52C75.0641 28.3467 74.7908 28.26 74.4374 28.26C74.1574 28.26 73.8908 28.3033 73.6374 28.39C73.3841 28.47 73.1474 28.5633 72.9274 28.67L72.6574 28.01C72.8908 27.8833 73.1674 27.7767 73.4874 27.69C73.8074 27.5967 74.1408 27.55 74.4874 27.55ZM74.7474 30.41C74.0808 30.4367 73.6174 30.5433 73.3574 30.73C73.1041 30.9167 72.9774 31.18 72.9774 31.52C72.9774 31.82 73.0674 32.04 73.2474 32.18C73.4341 32.32 73.6708 32.39 73.9574 32.39C74.4108 32.39 74.7874 32.2667 75.0874 32.02C75.3874 31.7667 75.5374 31.38 75.5374 30.86V30.38L74.7474 30.41ZM80.6129 27.54C81.2729 27.54 81.8029 27.77 82.2029 28.23C82.6096 28.69 82.8129 29.3833 82.8129 30.31C82.8129 31.2233 82.6096 31.9167 82.2029 32.39C81.8029 32.8633 81.2696 33.1 80.6029 33.1C80.1896 33.1 79.8462 33.0233 79.5729 32.87C79.3062 32.71 79.0962 32.5267 78.9429 32.32H78.8829C78.8962 32.4333 78.9096 32.5767 78.9229 32.75C78.9362 32.9233 78.9429 33.0733 78.9429 33.2V35.4H78.0629V27.64H78.7829L78.9029 28.37H78.9429C79.1029 28.1367 79.3129 27.94 79.5729 27.78C79.8329 27.62 80.1796 27.54 80.6129 27.54ZM80.4529 28.28C79.9062 28.28 79.5196 28.4333 79.2929 28.74C79.0729 29.0467 78.9562 29.5133 78.9429 30.14V30.31C78.9429 30.97 79.0496 31.48 79.2629 31.84C79.4829 32.1933 79.8862 32.37 80.4729 32.37C80.7996 32.37 81.0662 32.28 81.2729 32.1C81.4862 31.92 81.6429 31.6767 81.7429 31.37C81.8496 31.0567 81.9029 30.7 81.9029 30.3C81.9029 29.6867 81.7829 29.1967 81.5429 28.83C81.3096 28.4633 80.9462 28.28 80.4529 28.28ZM88.7452 27.64V33H87.8652V28.39H85.0952V33H84.2152V27.64H88.7452ZM94.5355 33H93.6455V28.37H92.0655C91.9788 29.4967 91.8588 30.4067 91.7055 31.1C91.5521 31.7867 91.3488 32.2867 91.0955 32.6C90.8421 32.9133 90.5221 33.07 90.1355 33.07C90.0488 33.07 89.9621 33.0633 89.8755 33.05C89.7955 33.0433 89.7288 33.0267 89.6755 33V32.34C89.7155 32.3533 89.7588 32.3633 89.8055 32.37C89.8521 32.3767 89.8988 32.38 89.9455 32.38C90.3055 32.38 90.5921 31.9967 90.8055 31.23C91.0255 30.4633 91.1921 29.2667 91.3055 27.64H94.5355V33ZM98.2667 27.55C98.9201 27.55 99.4034 27.6933 99.7167 27.98C100.03 28.2667 100.187 28.7233 100.187 29.35V33H99.5467L99.3767 32.24H99.3367C99.1034 32.5333 98.8567 32.75 98.5967 32.89C98.3434 33.03 97.9901 33.1 97.5367 33.1C97.0501 33.1 96.6467 32.9733 96.3267 32.72C96.0067 32.46 95.8467 32.0567 95.8467 31.51C95.8467 30.9767 96.0567 30.5667 96.4767 30.28C96.8967 29.9867 97.5434 29.8267 98.4167 29.8L99.3267 29.77V29.45C99.3267 29.0033 99.2301 28.6933 99.0367 28.52C98.8434 28.3467 98.5701 28.26 98.2167 28.26C97.9367 28.26 97.6701 28.3033 97.4167 28.39C97.1634 28.47 96.9267 28.5633 96.7067 28.67L96.4367 28.01C96.6701 27.8833 96.9467 27.7767 97.2667 27.69C97.5867 27.5967 97.9201 27.55 98.2667 27.55ZM98.5267 30.41C97.8601 30.4367 97.3967 30.5433 97.1367 30.73C96.8834 30.9167 96.7567 31.18 96.7567 31.52C96.7567 31.82 96.8467 32.04 97.0267 32.18C97.2134 32.32 97.4501 32.39 97.7367 32.39C98.1901 32.39 98.5667 32.2667 98.8667 32.02C99.1667 31.7667 99.3167 31.38 99.3167 30.86V30.38L98.5267 30.41ZM105.542 28.38H103.792V33H102.922V28.38H101.192V27.64H105.542V28.38ZM113.506 28.99C113.506 29.3233 113.406 29.5833 113.206 29.77C113.006 29.9567 112.749 30.0833 112.436 30.15V30.19C112.769 30.2367 113.059 30.3567 113.306 30.55C113.552 30.7367 113.676 31.03 113.676 31.43C113.676 31.8833 113.506 32.26 113.166 32.56C112.832 32.8533 112.279 33 111.506 33H109.196V27.64H111.496C111.876 27.64 112.216 27.6833 112.516 27.77C112.822 27.85 113.062 27.99 113.236 28.19C113.416 28.3833 113.506 28.65 113.506 28.99ZM112.616 29.1C112.616 28.8467 112.522 28.6633 112.336 28.55C112.156 28.43 111.859 28.37 111.446 28.37H110.076V29.84H111.286C112.172 29.84 112.616 29.5933 112.616 29.1ZM112.766 31.43C112.766 31.1233 112.649 30.9033 112.416 30.77C112.182 30.6367 111.839 30.57 111.386 30.57H110.076V32.29H111.406C111.846 32.29 112.182 32.2267 112.416 32.1C112.649 31.9667 112.766 31.7433 112.766 31.43ZM121.635 33H120.745V28.37H119.165C119.078 29.4967 118.958 30.4067 118.805 31.1C118.652 31.7867 118.448 32.2867 118.195 32.6C117.942 32.9133 117.622 33.07 117.235 33.07C117.148 33.07 117.062 33.0633 116.975 33.05C116.895 33.0433 116.828 33.0267 116.775 33V32.34C116.815 32.3533 116.858 32.3633 116.905 32.37C116.952 32.3767 116.998 32.38 117.045 32.38C117.405 32.38 117.692 31.9967 117.905 31.23C118.125 30.4633 118.292 29.2667 118.405 27.64H121.635V33ZM127.996 30.31C127.996 31.1967 127.77 31.8833 127.316 32.37C126.87 32.8567 126.263 33.1 125.496 33.1C125.023 33.1 124.6 32.9933 124.226 32.78C123.86 32.56 123.57 32.2433 123.356 31.83C123.143 31.41 123.036 30.9033 123.036 30.31C123.036 29.4233 123.26 28.74 123.706 28.26C124.153 27.78 124.76 27.54 125.526 27.54C126.013 27.54 126.44 27.65 126.806 27.87C127.18 28.0833 127.47 28.3967 127.676 28.81C127.89 29.2167 127.996 29.7167 127.996 30.31ZM123.946 30.31C123.946 30.9433 124.07 31.4467 124.316 31.82C124.57 32.1867 124.97 32.37 125.516 32.37C126.056 32.37 126.453 32.1867 126.706 31.82C126.96 31.4467 127.086 30.9433 127.086 30.31C127.086 29.6767 126.96 29.18 126.706 28.82C126.453 28.46 126.053 28.28 125.506 28.28C124.96 28.28 124.563 28.46 124.316 28.82C124.07 29.18 123.946 29.6767 123.946 30.31ZM132.661 27.64V28.38H130.271V33H129.391V27.64H132.661ZM134.547 30.91C134.547 30.99 134.544 31.11 134.537 31.27C134.531 31.43 134.521 31.59 134.507 31.75C134.501 31.91 134.494 32.0367 134.487 32.13L137.357 27.64H138.437V33H137.617V29.84C137.617 29.7333 137.617 29.5933 137.617 29.42C137.624 29.2467 137.631 29.0767 137.637 28.91C137.644 28.7367 137.651 28.6067 137.657 28.52L134.807 33H133.717V27.64H134.547V30.91ZM142.293 33.1C141.82 33.1 141.396 33.0033 141.023 32.81C140.656 32.6167 140.366 32.3167 140.153 31.91C139.946 31.5033 139.843 30.9833 139.843 30.35C139.843 29.69 139.953 29.1533 140.173 28.74C140.393 28.3267 140.69 28.0233 141.063 27.83C141.443 27.6367 141.873 27.54 142.353 27.54C142.626 27.54 142.89 27.57 143.143 27.63C143.396 27.6833 143.603 27.75 143.763 27.83L143.493 28.56C143.333 28.5 143.146 28.4433 142.933 28.39C142.72 28.3367 142.52 28.31 142.333 28.31C141.28 28.31 140.753 28.9867 140.753 30.34C140.753 30.9867 140.88 31.4833 141.133 31.83C141.393 32.17 141.776 32.34 142.283 32.34C142.576 32.34 142.833 32.31 143.053 32.25C143.28 32.19 143.486 32.1167 143.673 32.03V32.81C143.493 32.9033 143.293 32.9733 143.073 33.02C142.86 33.0733 142.6 33.1 142.293 33.1ZM148.648 28.38H146.898V33H146.028V28.38H144.298V27.64H148.648V28.38ZM150.534 30.91C150.534 30.99 150.53 31.11 150.524 31.27C150.517 31.43 150.507 31.59 150.494 31.75C150.487 31.91 150.48 32.0367 150.474 32.13L153.344 27.64H154.424V33H153.604V29.84C153.604 29.7333 153.604 29.5933 153.604 29.42C153.61 29.2467 153.617 29.0767 153.624 28.91C153.63 28.7367 153.637 28.6067 153.644 28.52L150.794 33H149.704V27.64H150.534V30.91ZM159.299 27.64H160.259L157.969 30.22L160.449 33H159.429L157.009 30.28V33H156.129V27.64H157.009V30.24L159.299 27.64ZM163.297 27.54C163.757 27.54 164.15 27.64 164.477 27.84C164.81 28.04 165.064 28.3233 165.237 28.69C165.417 29.05 165.507 29.4733 165.507 29.96V30.49H161.837C161.85 31.0967 162.004 31.56 162.297 31.88C162.597 32.1933 163.014 32.35 163.547 32.35C163.887 32.35 164.187 32.32 164.447 32.26C164.714 32.1933 164.987 32.1 165.267 31.98V32.75C164.994 32.87 164.724 32.9567 164.457 33.01C164.19 33.07 163.874 33.1 163.507 33.1C163 33.1 162.55 32.9967 162.157 32.79C161.77 32.5833 161.467 32.2767 161.247 31.87C161.034 31.4567 160.927 30.9533 160.927 30.36C160.927 29.7733 161.024 29.27 161.217 28.85C161.417 28.43 161.694 28.1067 162.047 27.88C162.407 27.6533 162.824 27.54 163.297 27.54ZM163.287 28.26C162.867 28.26 162.534 28.3967 162.287 28.67C162.047 28.9367 161.904 29.31 161.857 29.79H164.587C164.58 29.3367 164.474 28.97 164.267 28.69C164.06 28.4033 163.734 28.26 163.287 28.26Z" fill="white"/>
<circle cx="10" cy="12" r="9.5" fill="#4093D1" stroke="#4093D1"/>
</svg>
